<?xml version="1.0" encoding="UTF-8"?><svg id="_레이어_1" xmlns="http://www.w3.org/2000/svg" viewBox="0 0 1366 768"><defs><style>.cls-1{fill:none;stroke:#562b08;stroke-linecap:round;stroke-miterlimit:10;stroke-width:42.15px;}</style></defs><g><g><line class="cls-1" x1="32.59" y1="325.38" x2="32.59" y2="443.13"/><line class="cls-1" x1="134.56" y1="502" x2="32.59" y2="443.13"/></g><g><line class="cls-1" x1="236.53" y1="325.38" x2="236.53" y2="443.13"/><line class="cls-1" x1="134.56" y1="502" x2="236.53" y2="443.13"/></g></g><g><line class="cls-1" x1="303.75" y1="442.56" x2="303.75" y2="324.82"/><line class="cls-1" x1="405.72" y1="265.95" x2="303.75" y2="324.82"/><line class="cls-1" x1="405.72" y1="265.95" x2="507.69" y2="324.82"/></g><g><g><line class="cls-1" x1="858.73" y1="325.38" x2="858.73" y2="443.13"/><line class="cls-1" x1="960.7" y1="502" x2="858.73" y2="443.13"/></g><g><line class="cls-1" x1="1062.67" y1="325.38" x2="1062.67" y2="443.13"/><line class="cls-1" x1="960.7" y1="502" x2="1062.67" y2="443.13"/></g></g><g><line class="cls-1" x1="1129.89" y1="442.56" x2="1129.89" y2="324.82"/><line class="cls-1" x1="1231.86" y1="265.95" x2="1129.89" y2="324.82"/><line class="cls-1" x1="1231.86" y1="265.95" x2="1333.83" y2="324.82"/></g><g><g><line class="cls-1" x1="574.91" y1="443.13" x2="574.91" y2="325.38"/><line class="cls-1" x1="676.88" y1="266.51" x2="574.91" y2="325.38"/><line class="cls-1" x1="676.88" y1="266.51" x2="778.85" y2="325.38"/><line class="cls-1" x1="778.85" y1="325.38" x2="778.85" y2="443.13"/><line class="cls-1" x1="676.88" y1="502" x2="778.85" y2="443.13"/><line class="cls-1" x1="676.88" y1="502" x2="574.91" y2="443.13"/></g><line class="cls-1" x1="778.85" y1="384.26" x2="676.88" y2="384.26"/></g></svg>